<svg xmlns="http://www.w3.org/2000/svg" aria-hidden="true" style="position:absolute;width:0;height:0;overflow:hidden">
  <defs>
    <symbol id="icon-logo" viewBox="0 0 22 32">
      <path fill="#a78bfa" d="M11.204 0c-1.21 0-2.371.476-3.227 1.322S6.64 3.316 6.64 4.513v2.05H4.566c-.6 0-1.194.116-1.748.343s-1.058.559-1.482.979c-.424.419-.76.917-.99 1.465s-.347 1.135-.347 1.728v4.511h6.639v4.1H4.564c-1.211 0-2.372.475-3.228 1.321s-1.338 1.994-1.338 3.191v7.796h4.569a4.601 4.601 0 0 0 3.226-1.323c.423-.419.759-.917.988-1.464s.347-1.134.346-1.727h.006v-2.978l-.012.002V5.531l.01.002v-1.02c.001-.544.22-1.065.608-1.45s.915-.603 1.465-.605h7.93v2.056c-.002.544-.221 1.064-.61 1.449s-.916.6-1.466.601h-6.989v2.461h6.988c1.21 0 2.371-.475 3.227-1.321s1.337-1.994 1.337-3.19V.001L11.203.002zM6.639 13.128H2.49v-2.05c.001-.545.22-1.067.609-1.452s.917-.603 1.467-.605H6.64l-.001 4.107zm0 14.358c-.001.544-.22 1.065-.608 1.449s-.915.601-1.465.603H2.49v-5.335c.001-.544.22-1.065.609-1.45s.917-.6 1.467-.6H6.64v5.333zm3.431-11.898h5.237v2.052c-.002.544-.222 1.064-.611 1.448s-.916.6-1.466.602h-3.161v2.462h3.162a4.605 4.605 0 0 0 3.228-1.321 4.48 4.48 0 0 0 1.336-3.191h.002v-4.513h-7.729v2.461z" style="fill:var(--color1, #a78bfa)"/>
    </symbol>
    <symbol id="icon-Arrow" viewBox="0 0 32 32">
      <path d="M11.053 15.053a1.33 1.33 0 0 0-.28.44 1.336 1.336 0 0 0 0 1.013c.063.164.159.313.28.44l4 4a1.34 1.34 0 0 0 1.894-1.894l-1.733-1.72h4.787a1.334 1.334 0 0 0 0-2.668h-4.787l1.733-1.72a1.334 1.334 0 0 0 0-1.894 1.334 1.334 0 0 0-1.894 0l-4 4zM2.667 16a13.336 13.336 0 0 0 15.935 13.078 13.327 13.327 0 0 0 10.476-10.476 13.34 13.34 0 0 0-5.67-13.688A13.336 13.336 0 0 0 6.572 6.572 13.336 13.336 0 0 0 2.667 16zm24 0a10.666 10.666 0 1 1-21.332.001A10.666 10.666 0 0 1 26.667 16z"/>
    </symbol>
    <symbol id="icon-Burger" viewBox="0 0 32 32">
      <path fill="#a78bfa" d="M2.667 5.333h26.667a2.667 2.667 0 1 1 0 5.334H2.667a2.667 2.667 0 1 1 0-5.334zM2.667 13.333h26.667a2.667 2.667 0 1 1 0 5.334H2.667a2.667 2.667 0 1 1 0-5.334zM2.667 21.333h26.667a2.667 2.667 0 1 1 0 5.334H2.667a2.667 2.667 0 1 1 0-5.334z" style="fill:var(--color1, #a78bfa)"/>
    </symbol>
    <symbol id="icon-Group-1" viewBox="0 0 32 32">
      <path fill="#a78bfa" d="m2.267 6.862 22.648 22.851c1.252 1.263 3.282 1.263 4.534 0s1.252-3.311 0-4.574L6.801 2.288c-1.252-1.263-3.282-1.263-4.534 0s-1.252 3.311 0 4.574z" style="fill:var(--color1, #a78bfa)"/>
      <path fill="#a78bfa" d="M7.077 29.704 29.732 6.86c1.252-1.263 1.252-3.31 0-4.573s-3.283-1.263-4.535 0L2.542 25.131c-1.252 1.263-1.252 3.31 0 4.573s3.283 1.263 4.535 0z" style="fill:var(--color1, #a78bfa)"/>
    </symbol>
    <symbol id="icon-Group" viewBox="0 0 32 32">
      <path fill="#8b5cf6" d="m31.668 17.473-2.75-4.756c-.068-.117-.167-.215-.287-.283s-.257-.103-.397-.103h-4.253V8.405c0-.107-.045-.21-.123-.286S23.673 8 23.561 8H6.569c-.111 0-.218.043-.296.119s-.123.179-.123.286v12.81c0 .156.064.305.179.416s.269.172.431.172h24.875a.371.371 0 0 0 .338-.218.332.332 0 0 0 .027-.135v-2.735c0-.434-.114-.861-.332-1.241z" style="fill:var(--color2, #8b5cf6)"/>
      <path fill="#a78bfa" d="M32 18.714v1.829h-5.307c-.328 0-.642-.126-.873-.349s-.362-.527-.362-.843V12.33h2.777c.139-.001.276.035.397.103s.22.165.287.283l2.75 4.756c.218.38.332.807.332 1.241z" style="fill:var(--color1, #a78bfa)"/>
      <path fill="#a5b4fc" d="M30.246 21.805c.002.45-.142.889-.413 1.254-.276.384-.673.672-1.131.823s-.954.157-1.416.017c-.462-.14-.865-.419-1.152-.795s-.44-.832-.439-1.299c0-.582.24-1.14.667-1.552s1.005-.643 1.609-.643c.603 0 1.182.231 1.609.643s.667.97.667 1.552z" style="fill:var(--color3, #a5b4fc)"/>
      <path fill="#a78bfa" d="M23.982 8.405v12.204H10.126c-.327 0-.652-.062-.954-.183s-.577-.298-.809-.521c-.232-.223-.415-.488-.54-.78s-.19-.605-.19-.92V8.001h15.929c.111 0 .218.043.296.119s.123.179.123.286z" style="fill:var(--color1, #a78bfa)"/>
      <path fill="#c4b5fd" d="M30.246 21.805c.002.45-.142.889-.413 1.254a2.318 2.318 0 0 1-2.225-.558 2.16 2.16 0 0 1-.667-1.552 2.102 2.102 0 0 1 .42-1.267 2.352 2.352 0 0 1 1.987.373c.279.205.505.47.661.774s.237.638.237.977z" style="fill:var(--color4, #c4b5fd)"/>
      <path fill="#a5b4fc" d="M15.57 21.805c0 .409-.119.809-.343 1.157s-.543.627-.923.809a2.35 2.35 0 0 1-2.387-.22c-.337-.247-.596-.581-.748-.963s-.189-.797-.11-1.198c.08-.401.274-.773.561-1.074s.656-.518 1.064-.627a2.09 2.09 0 0 1 .61-.085c.299 0 .596.057.872.168s.527.273.739.478c.211.204.379.447.493.714s.173.553.172.842z" style="fill:var(--color3, #a5b4fc)"/>
      <path fill="#c4b5fd" d="M15.57 21.805a2.133 2.133 0 0 1-.413 1.254 2.323 2.323 0 0 1-2.225-.558 2.159 2.159 0 0 1-.667-1.552 2.1 2.1 0 0 1 .42-1.261 2.09 2.09 0 0 1 .61-.085c.299 0 .596.057.872.168s.527.273.739.478c.211.204.379.447.493.714s.172.553.172.842z" style="fill:var(--color4, #c4b5fd)"/>
      <path fill="#a5b4fc" d="M8.159 18.524H1.712c-.135 0-.264-.052-.359-.143s-.149-.217-.149-.346c0-.13.054-.255.149-.346s.224-.144.359-.144h6.447c.135 0 .264.052.359.144s.149.217.149.346c0 .13-.053.255-.149.346s-.224.143-.359.143zm5.137-2.229H4.3c-.135 0-.264-.052-.359-.144s-.149-.217-.149-.346c0-.13.054-.255.149-.346s.224-.143.359-.143h8.996c.135 0 .264.052.359.143s.149.217.149.346-.053.255-.149.346a.518.518 0 0 1-.359.144zm-9.275-2.587H.508c-.135 0-.264-.052-.359-.143S0 13.348 0 13.219c0-.13.053-.255.149-.346s.224-.143.359-.143h3.513c.135 0 .264.052.359.143s.149.217.149.346c0 .13-.054.255-.149.346s-.224.143-.359.143zm5.632-2.707H3.452c-.135 0-.264-.052-.359-.143s-.149-.217-.149-.346c0-.13.054-.255.149-.346s.224-.144.359-.144h6.201c.135 0 .264.052.359.144s.149.217.149.346c0 .13-.054.255-.149.346s-.224.143-.359.143z" style="fill:var(--color3, #a5b4fc)"/>
    </symbol>
    <symbol id="icon-Group-11" viewBox="0 0 32 32">
      <path fill="#ddd6fe" d="M15.054 0 0 7.61v17.481l17.155 6.906L32 23.256V5.778L15.054.001z" style="fill:var(--color5, #ddd6fe)"/>
      <path fill="#c4b5fd" d="M32 5.777 15.054 0 0 7.61v17.481L17.155 32V14.514l-.003-.001 14.849-8.735z" style="fill:var(--color4, #c4b5fd)"/>
      <path fill="#8b5cf6" d="M17.155 14.514V32h-.007L0 25.091V7.611l17.155 6.902z" style="fill:var(--color2, #8b5cf6)"/>
      <path fill="#a78bfa" d="M17.155 14.514v15.085L5.874 25.05a6.162 6.162 0 0 1-3.855-5.712V8.424l15.136 6.09z" style="fill:var(--color1, #a78bfa)"/>
      <path fill="#5b21b6" d="m24.789 3.317-.303.165-14.649 8.086-.028 5.622-2.32-.867-1.514-.571V10.02l15.269-7.907 3.545 1.204z" style="fill:var(--color6, #5b21b6)"/>
      <path fill="#6d28d9" d="M24.503 3.482 9.854 11.568l-.028 5.622-2.32-.867v-5.519l15.275-7.907 1.721.585z" style="fill:var(--color7, #6d28d9)"/>
    </symbol>
    <symbol id="icon-Group-2" viewBox="0 0 32 32">
      <path fill="#ede9fe" d="M15.925 2.109v.102H7.873v-.102L8.409 0h6.981l.536 2.109z" style="fill:var(--color8, #ede9fe)"/>
      <path fill="#4c1d95" d="M0 2.109h23.799V32H0V2.109z" style="fill:var(--color9, #4c1d95)"/>
      <path fill="#c4b5fd" d="M2.15 4.198h19.495v25.717H2.15V4.198z" style="fill:var(--color4, #c4b5fd)"/>
      <path fill="#a78bfa" d="M21.645 4.198v24.141H8.036c-.441 0-.878-.084-1.285-.248s-.778-.403-1.089-.706-.559-.661-.728-1.056a3.164 3.164 0 0 1-.255-1.246V4.197h16.967z" style="fill:var(--color1, #a78bfa)"/>
      <path fill="#6d28d9" d="M4.809 6.721c-.158 0-.309.061-.421.169s-.174.255-.175.407v2.949c0 .153.063.299.175.407s.263.169.421.169h3.044c.158 0 .309-.061.42-.169s.174-.255.174-.407V7.347a.62.62 0 0 0-.399-.579.656.656 0 0 0-.248-.048H4.809zm0 8.199c-.158 0-.309.061-.421.169s-.174.255-.174.408v2.95c0 .153.063.299.175.407s.263.169.421.169h3.044c.158 0 .309-.061.42-.169s.174-.255.174-.407v-2.899c0-.166-.068-.326-.19-.444s-.286-.184-.458-.184H4.809zm0 8.08a.616.616 0 0 0-.421.169.575.575 0 0 0-.174.408v2.953c0 .153.063.299.175.407s.263.169.421.169h3.044c.158 0 .309-.061.42-.169s.174-.255.174-.407v-2.902a.62.62 0 0 0-.399-.579.66.66 0 0 0-.248-.048H4.81z" style="fill:var(--color7, #6d28d9)"/>
      <path fill="#ede9fe" d="M19.154 9.269h-4.199c-.141 0-.277-.054-.377-.151a.508.508 0 0 1 0-.73.54.54 0 0 1 .377-.151h4.199c.141 0 .277.054.377.151a.508.508 0 0 1 0 .73.54.54 0 0 1-.377.151zm-6.35 0h-2.159c-.141 0-.277-.054-.377-.151a.508.508 0 0 1 0-.73.54.54 0 0 1 .377-.151h2.159c.141 0 .277.054.377.151a.508.508 0 0 1 0 .73.54.54 0 0 1-.377.151zm6.35 7.992h-2.081c-.141 0-.277-.054-.377-.151a.508.508 0 0 1 0-.73.542.542 0 0 1 .377-.151h2.081c.141 0 .277.054.377.151a.508.508 0 0 1 0 .73.54.54 0 0 1-.377.151zm-4.249 0h-4.261c-.141 0-.277-.054-.377-.151a.508.508 0 0 1 0-.73.54.54 0 0 1 .377-.151h4.261c.141 0 .277.054.377.151a.508.508 0 0 1 0 .73.54.54 0 0 1-.377.151zM6.696 9.675h-.021a.549.549 0 0 1-.373-.168l-.66-.702a.507.507 0 0 1 .213-.832.549.549 0 0 1 .574.137l.297.315 2.787-2.532a.543.543 0 0 1 .752.024.508.508 0 0 1-.024.729l-3.18 2.89a.541.541 0 0 1-.364.14zm0 8.199h-.021a.549.549 0 0 1-.373-.168l-.66-.702a.498.498 0 0 1-.138-.371c.003-.068.02-.134.05-.195a.54.54 0 0 1 .301-.266.549.549 0 0 1 .574.137l.297.315 2.787-2.532a.543.543 0 0 1 .752.024.508.508 0 0 1-.024.729l-3.18 2.89a.541.541 0 0 1-.364.14zm0 8.08h-.021a.549.549 0 0 1-.373-.168l-.662-.702a.504.504 0 0 1 .022-.741.537.537 0 0 1 .392-.134.522.522 0 0 1 .372.18l.297.314 2.787-2.532a.542.542 0 0 1 .739.036.504.504 0 0 1-.012.717l-3.18 2.89a.534.534 0 0 1-.362.14zm12.597-.403h-4.199c-.141 0-.277-.054-.377-.151a.508.508 0 0 1 0-.73.54.54 0 0 1 .377-.151h4.199c.141 0 .277.054.377.151a.508.508 0 0 1 0 .73.54.54 0 0 1-.377.151zm-6.352 0h-2.157c-.141 0-.277-.054-.377-.151a.508.508 0 0 1 0-.73.54.54 0 0 1 .377-.151h2.157c.141 0 .277.054.377.151a.508.508 0 0 1 0 .73.54.54 0 0 1-.377.151z" style="fill:var(--color8, #ede9fe)"/>
      <path fill="#6d28d9" d="M32 14.19c0 .137-.056.268-.156.365s-.235.151-.377.151-.277-.054-.377-.151a.508.508 0 0 1-.156-.365V9.469c-.036-.117-.177-.392-.803-.392h-.535v-.943a.378.378 0 0 0-.007-.089h.543c.424-.049.852.059 1.197.303s.582.605.664 1.011l.006 4.831zm-2.365 12.511L28.023 32l-1.619-5.299h3.231z" style="fill:var(--color7, #6d28d9)"/>
      <path fill="#c4b5fd" d="M26.404 14.19h3.231v12.511h-3.231V14.19z" style="fill:var(--color4, #c4b5fd)"/>
      <path fill="#6d28d9" d="M29.636 8.134v6.056h-3.231V8.134c0-.415.17-.813.473-1.107s.714-.459 1.142-.459.84.165 1.142.459c.303.294.473.692.473 1.107z" style="fill:var(--color7, #6d28d9)"/>
      <path fill="#7c3aed" d="M29.635 26.701 28.023 32v-5.299h1.612z" style="fill:var(--color10, #7c3aed)"/>
      <path fill="#a78bfa" d="M28.023 14.19h1.612v12.511h-1.612V14.19z" style="fill:var(--color1, #a78bfa)"/>
      <path fill="#7c3aed" d="M29.636 8.134v6.056h-1.612V6.572c.411 0 .807.152 1.105.426s.477.648.5 1.046a.378.378 0 0 1 .007.089z" style="fill:var(--color10, #7c3aed)"/>
    </symbol>
    <symbol id="icon-Group-3" viewBox="0 0 32 32">
      <path fill="#8b5cf6" d="M21.566 27.887V30.4H10.432v-2.513h2.656l.468-4.249.11-1.012v-.02h4.659l.007.02.11 1.012.468 4.249h2.656z" style="fill:var(--color2, #8b5cf6)"/>
      <path fill="#7c3aed" d="M18.442 23.638h-4.886l.11-1.012v-.02h4.659l.007.02.11 1.012z" style="fill:var(--color10, #7c3aed)"/>
      <path fill="#a78bfa" d="M18.907 27.885h-8.476v2.512h11.137v-2.512h-2.66z" style="fill:var(--color1, #a78bfa)"/>
      <path fill="#c4b5fd" d="M30.863 1.6H1.135c-.301.001-.59.118-.803.326S0 2.415 0 2.709v18.808c0 .293.12.575.332.783s.502.325.803.326h29.659a1.232 1.232 0 0 0 .852-.344 1.156 1.156 0 0 0 .353-.83V2.71c0-.294-.12-.575-.333-.783s-.502-.325-.804-.325z" style="fill:var(--color4, #c4b5fd)"/>
      <path fill="#4c1d95" d="M2.112 3.521h27.773V18.82H2.112V3.521z" style="fill:var(--color9, #4c1d95)"/>
      <path fill="#6d28d9" d="M29.886 3.521v13.905H8.347c-1.091-.001-2.138-.423-2.909-1.174s-1.205-1.77-1.206-2.833V3.521h25.654z" style="fill:var(--color7, #6d28d9)"/>
      <path fill="#4c1d95" d="M25.688 14.283a.273.273 0 0 1 .034-.06v-.007c.194-.322.351-.663.468-1.019.319-.995.313-2.061-.018-3.052s-.97-1.858-1.828-2.48a5.27 5.27 0 0 0-5.971-.131c-.612.4-1.127.926-1.507 1.541-.352.564-.587 1.189-.691 1.841s-.075 1.318.086 1.958c.16.641.449 1.245.849 1.777s.904.983 1.483 1.325c.823.469 1.758.72 2.711.73a4.732 4.732 0 0 0 1.583-.261 7.107 7.107 0 0 0 1.046-.469l1.486 1.447h3.489c-1.5-1.454-3.22-3.136-3.22-3.143z" style="fill:var(--color9, #4c1d95)"/>
      <path fill="#ddd6fe" d="M31.4 20.691c-.053.209-.165.4-.323.549-.232.223-.545.348-.871.348s-.639-.125-.871-.348l-2.484-2.419h3.035v-.436l1.191 1.159a1.16 1.16 0 0 1 .323 1.146z" style="fill:var(--color5, #ddd6fe)"/>
      <path fill="#5b21b6" d="M29.886 18.384v.436h-3.035l-1.431-1.394h3.489c.344.335.681.663.977.958z" style="fill:var(--color6, #5b21b6)"/>
      <path fill="#a78bfa" d="m31.637 19.032-5.394-5.253c.651-1.049.885-2.294.658-3.5s-.9-2.289-1.891-3.045c-.991-.756-2.232-1.132-3.488-1.058s-2.442.594-3.332 1.46c-.89.867-1.424 2.021-1.5 3.245s.31 2.432 1.087 3.397c.776.965 1.888 1.62 3.126 1.841s2.517-.007 3.594-.641l5.394 5.253a1.253 1.253 0 0 0 1.745 0c.232-.225.362-.531.362-.85s-.13-.625-.362-.85z" style="fill:var(--color1, #a78bfa)"/>
      <path fill="#8b5cf6" d="M21.829 16.2c2.848 0 5.157-2.248 5.157-5.022s-2.309-5.022-5.157-5.022-5.157 2.248-5.157 5.022 2.309 5.022 5.157 5.022z" style="fill:var(--color2, #8b5cf6)"/>
      <path fill="#c4b5fd" d="m31.637 19.032-5.398-5.258a5.157 5.157 0 0 1-.766.953 5.157 5.157 0 0 1-.448.387l5.149 5.013c.231.225.545.352.872.352s.641-.127.872-.352l.065-.067c.029-.186.013-.376-.048-.555s-.163-.341-.299-.474z" style="fill:var(--color4, #c4b5fd)"/>
      <path fill="#c4b5fd" d="M21.829 6.156a5.222 5.222 0 0 0-3.35 1.206c-.653 1.017-.91 2.229-.725 3.415s.799 2.268 1.733 3.051c.933.783 2.123 1.215 3.355 1.217s2.424-.424 3.36-1.204a4.914 4.914 0 0 0 .14-5.097c-.446-.784-1.1-1.438-1.894-1.893s-1.698-.695-2.619-.695z" style="fill:var(--color4, #c4b5fd)"/>
    </symbol>
    <symbol id="icon-Group-4" viewBox="0 0 27 32">
      <path fill="#a78bfa" d="M11.592 20.275c-.13-.148-.299-.254-.487-.306s-.385-.047-.57.014l-1.809.594a.728.728 0 0 1-.829-.28.784.784 0 0 1-.126-.29l-.406-1.912c-.042-.195-.137-.374-.274-.515s-.311-.239-.5-.282l-.085-.019L0 27.106l5.299-.365 1.475 5.258 6.647-10.027c-.104.001-.207-.021-.301-.065s-.18-.107-.249-.186l-1.279-1.447z" style="fill:var(--color1, #a78bfa)"/>
      <path fill="#a78bfa" d="M11.592 20.275a.991.991 0 0 0-1.057-.296l-1.809.594a.712.712 0 0 1-.6-.067.784.784 0 0 1-.355-.503l-.2-.948-5.362 7.897 3.09-.213.86 3.065 6.021-8.866-.588-.665zm3.481 0c.13-.148.299-.254.487-.306s.385-.047.57.014l1.809.594a.728.728 0 0 0 .829-.28.784.784 0 0 0 .126-.29l.406-1.912c.042-.195.137-.374.274-.515s.311-.239.5-.282l.085-.019 6.508 9.826-5.299-.365-1.475 5.258-6.648-10.027a.736.736 0 0 0 .551-.252l1.279-1.447z" style="fill:var(--color1, #a78bfa)"/>
      <path fill="#a78bfa" d="M15.073 20.275c.131-.148.299-.254.487-.306s.385-.047.57.014l1.809.594a.728.728 0 0 0 .829-.28.784.784 0 0 0 .126-.29l.2-.948 5.361 7.895-3.09-.213-.86 3.065-6.02-8.866.588-.665z" style="fill:var(--color1, #a78bfa)"/>
      <path fill="#7c3aed" d="m15.961 21.123 1.735.57a1.826 1.826 0 0 0 1.512-.169c.227-.135.424-.317.578-.535a1.98 1.98 0 0 0 .319-.731l.388-1.833.369-.083-.703-1.062-.085.019c-.189.043-.362.141-.499.282s-.232.32-.274.515l-.406 1.912a.784.784 0 0 1-.355.503.734.734 0 0 1-.6.067l-1.809-.594c-.185-.061-.383-.066-.57-.014s-.356.158-.487.306l-1.279 1.445a.582.582 0 0 1-.462.232.575.575 0 0 1-.462-.232l-1.278-1.445c-.095-.108-.211-.194-.34-.254a.988.988 0 0 0-.717-.042l-1.809.594a.712.712 0 0 1-.6-.067.784.784 0 0 1-.355-.503l-.405-1.912c-.042-.195-.138-.373-.275-.514s-.311-.238-.5-.281l-.085-.019-.699 1.059.39.087.388 1.833c.056.264.165.512.319.73s.351.4.578.535a1.84 1.84 0 0 0 1.512.167l1.731-.575 1.23 1.392c.211.235.476.412.77.515l.607-.917.613.924c.302-.102.573-.281.79-.521l1.226-1.387z" style="fill:var(--color10, #7c3aed)"/>
      <path fill="#8b5cf6" d="M11.592 20.275c-.095-.108-.211-.194-.34-.254a.988.988 0 0 0-.717-.041l-1.809.594a.712.712 0 0 1-.6-.067.784.784 0 0 1-.355-.503l-.2-.948-5.362 7.897 3.09-.213.86 3.065 6.021-8.866-.588-.665zm7.503-1.215-.2.948a.784.784 0 0 1-.355.503.734.734 0 0 1-.6.067l-1.809-.594c-.185-.061-.383-.066-.57-.014s-.356.158-.487.306l-.588.665 6.021 8.866.86-3.065 3.09.213-5.362-7.895z" style="fill:var(--color2, #8b5cf6)"/>
      <path fill="#a78bfa" d="m12.18 20.941-.588-.665c-.095-.108-.211-.194-.34-.254a.988.988 0 0 0-.717-.041l-1.809.594a.712.712 0 0 1-.6-.067.784.784 0 0 1-.355-.503l-.2-.948-.934 1.376c.151.489.484.896.927 1.132s.957.281 1.431.127l1.731-.575.755.855.7-1.032zm5.516.752c.47.154.98.112 1.421-.118s.775-.629.932-1.111l-.953-1.403-.2.948a.784.784 0 0 1-.355.503.734.734 0 0 1-.6.067l-1.809-.594c-.185-.061-.383-.066-.57-.014s-.356.158-.487.306l-.588.665.709 1.045.765-.865 1.735.571z" style="fill:var(--color1, #a78bfa)"/>
      <path fill="#6d28d9" d="m20.203 4.676 1.855.418a.88.88 0 0 1 .574.433.929.929 0 0 1 .077.729l-.576 1.865a.93.93 0 0 0 .246.946l1.402 1.318c.091.085.163.189.212.304a.937.937 0 0 1 0 .734.901.901 0 0 1-.212.304l-1.402 1.319c-.124.117-.214.268-.257.436s-.039.345.012.51l.576 1.865a.94.94 0 0 1-.077.729c-.061.109-.144.204-.243.279s-.212.127-.331.154l-1.855.418c-.164.037-.315.122-.434.245s-.201.278-.237.448l-.406 1.912a.898.898 0 0 1-.419.593.856.856 0 0 1-.706.079l-1.809-.594c-.16-.053-.332-.057-.495-.012s-.309.137-.423.266l-1.279 1.445a.856.856 0 0 1-1.3 0l-1.279-1.445a.852.852 0 0 0-.917-.254l-1.809.594a.852.852 0 0 1-.706-.079.92.92 0 0 1-.419-.593L7.16 18.13c-.036-.17-.118-.325-.237-.448s-.27-.208-.434-.245l-1.855-.418c-.12-.027-.232-.079-.331-.154a.906.906 0 0 1-.356-.635.943.943 0 0 1 .036-.373l.576-1.865c.051-.165.055-.342.012-.51s-.133-.319-.257-.436l-1.402-1.319c-.091-.085-.163-.189-.212-.304a.937.937 0 0 1 0-.734.901.901 0 0 1 .212-.304l1.402-1.318a.93.93 0 0 0 .245-.946l-.576-1.865a.94.94 0 0 1 .077-.729c.061-.109.144-.204.243-.279s.212-.127.331-.154l1.855-.418c.164-.037.315-.122.434-.245s.201-.278.237-.448l.406-1.913c.026-.123.077-.24.149-.342a.882.882 0 0 1 .615-.366.85.85 0 0 1 .361.038l1.809.594c.16.053.332.057.494.012s.309-.137.423-.265L12.696.296a.866.866 0 0 1 1.3 0l1.279 1.445c.113.128.26.22.423.265s.334.041.494-.012l1.809-.594a.856.856 0 0 1 .706.078c.106.063.198.148.27.25s.123.218.149.342l.406 1.913c.036.17.118.325.237.448s.27.208.434.245z" style="fill:var(--color7, #6d28d9)"/>
      <path fill="#a78bfa" d="M20.293 11.057c-.001 1.328-.361 2.629-1.037 3.758s-1.645 2.043-2.795 2.638a6.77 6.77 0 0 1-7.264-.657c-1.033-.793-1.832-1.866-2.308-3.099s-.61-2.579-.388-3.887.793-2.526 1.648-3.518a6.929 6.929 0 0 1 3.193-2.104 6.771 6.771 0 0 1 4.662.243c.843.36 1.61.889 2.255 1.555.645.666 1.157 1.457 1.506 2.327s.528 1.802.527 2.744z" style="fill:var(--color1, #a78bfa)"/>
      <path fill="#8b5cf6" d="M20.293 11.057c.001 1.214-.298 2.407-.868 3.469s-1.392 1.957-2.389 2.601a6.64 6.64 0 0 1-2.002.303c-1.509.001-2.977-.505-4.183-1.44s-2.083-2.251-2.5-3.746c-.417-1.496-.35-3.09.19-4.544s1.524-2.686 2.803-3.511a6.771 6.771 0 0 1 4.662.243c.843.36 1.61.889 2.255 1.555.645.666 1.157 1.457 1.506 2.327s.528 1.802.527 2.744z" style="fill:var(--color2, #8b5cf6)"/>
      <path fill="#f5f3ff" d="M13.851 15.478c-.133 0-.26-.054-.354-.151s-.147-.228-.147-.365v-6.4l-1.291.909a.49.49 0 0 1-.704-.13.534.534 0 0 1-.001-.58.505.505 0 0 1 .141-.143l2.073-1.46a.487.487 0 0 1 .516-.03c.081.044.148.11.195.19s.072.173.072.267v7.378c0 .137-.053.268-.147.365s-.221.151-.354.151z" style="fill:var(--color11, #f5f3ff)"/>
    </symbol>
    <symbol id="icon-Group-5" viewBox="0 0 32 32">
      <path fill="#c4b5fd" d="M7.463 29.508C2.279 27.718 1.123 23.532.99 18.48a66.746 66.746 0 0 1 .026-3.523c2.288-.399 4.48-1.133 6.489-2.326a17.703 17.703 0 0 0 3.776 1.67c.093.029.112.144.307.144.095 0 .075-.026.141-.008.788.224 1.453.378 2.266.52.074 2.809.136 5.997-.693 8.681-.936 3.03-2.822 4.857-5.756 5.87h-.083zM11.7 18.207a.352.352 0 0 0-.502 0l-4.559 4.657-2.154-2.2a.348.348 0 0 0-.502 0 .37.37 0 0 0 0 .514l2.405 2.457c.033.034.072.06.115.079a.335.335 0 0 0 .272 0 .348.348 0 0 0 .115-.079l4.81-4.914a.37.37 0 0 0 0-.514zm2.394-8.012V6.652a.23.23 0 0 1 .227-.231h8.436v3.774h-8.663zm9.374-7.505a.23.23 0 0 1 .227-.231h4.008c.06 0 .117.025.16.068s.066.102.067.163v7.505h-4.461V2.69zM6.404 8.271c0 .189-.156.341-.304.43a1.29 1.29 0 0 1-.659.172H1.802a1.29 1.29 0 0 1-.658-.172C.996 8.611.84 8.46.84 8.271v-.502c0-.189.156-.341.304-.43a1.29 1.29 0 0 1 .658-.172l3.295.002c.062.011.078.03.149.029l.877-.007c.097.026.257.109.281.19v.891z" style="fill:var(--color4, #c4b5fd)"/>
      <path fill="#8b5cf6" d="M11.792 18.114a.478.478 0 0 0-.685 0l-4.468 4.564-2.062-2.106a.476.476 0 0 0-.685 0 .493.493 0 0 0-.142.351.518.518 0 0 0 .142.351l2.405 2.457a.482.482 0 0 0 .686 0l4.81-4.914a.488.488 0 0 0 .142-.35.518.518 0 0 0-.142-.351zm12.516-.287c0 .273.217.495.485.495s.485-.221.485-.495v-3.963c0-.274-.217-.495-.485-.495s-.485.222-.485.495v3.963zm-3.879 0a.509.509 0 0 0 .142.35.492.492 0 0 0 .342.145c.128 0 .252-.052.343-.145s.142-.219.142-.35v-3.963c0-.131-.051-.257-.142-.35a.479.479 0 0 0-.686 0 .5.5 0 0 0-.142.35v3.963zm-3.879 0c0 .131.051.257.142.35a.479.479 0 0 0 .686 0 .5.5 0 0 0 .142-.35v-3.963c0-.131-.051-.257-.142-.35a.479.479 0 0 0-.791.161.51.51 0 0 0-.037.19v3.963zm9.91 8.106c0-.757-.603-1.373-1.344-1.373s-1.343.616-1.343 1.373c0 .756.603 1.372 1.343 1.372s1.344-.616 1.344-1.372zm-8.546 0c0-.757-.603-1.373-1.343-1.373s-1.343.616-1.343 1.373c0 .756.603 1.372 1.343 1.372s1.343-.616 1.343-1.372zm-10.409 3.45c2.967-1.025 4.772-2.866 5.674-5.784.806-2.61.764-5.726.69-8.53a19.964 19.964 0 0 1-1.792-.398c-.128-.034-.255-.071-.382-.107a.481.481 0 0 1-.451-.137 17.999 17.999 0 0 1-3.737-1.643c-1.854 1.1-4.129 1.896-6.362 2.285-.073 2.803-.117 5.92.689 8.53.902 2.919 2.707 4.76 5.673 5.784zm23.048-18.329H11.007l.923 2.55c.84.243 1.628.42 2.482.55a.493.493 0 0 1 .413.476c.052 1.917.107 3.997-.096 6.007l10.641.001c.987 0 1.824-.546 2.239-1.462l3.373-7.434a.495.495 0 0 0-.028-.466.47.47 0 0 0-.402-.222zm-16.33-4.402v3.411h8.404v-3.51H14.32a.099.099 0 0 0-.097.099zm9.471-4.062a.099.099 0 0 0-.097.099v7.373h4.202V2.689a.099.099 0 0 0-.097-.099h-4.008zM6.275 7.42c-.018-.028-.083-.075-.184-.102l-.842.011c-.104.001-.132-.023-.173-.031H1.804c-.469 0-.833.253-.833.47v.502c0 .217.364.47.833.47h3.639c.469 0 .833-.253.833-.47v-.851zm19.097 14.209H14.608a15.848 15.848 0 0 1-.409 1.942h14.65c.268 0 .485.222.485.495s-.216.495-.485.495h-1.851c1.089 1.557-.002 3.735-1.881 3.735-1.884 0-2.969-2.184-1.881-3.735h-4.784c1.088 1.551.003 3.735-1.881 3.735-1.879 0-2.971-2.177-1.881-3.735-.225 0-.593.011-.806-.017-1.077 2.89-3.121 4.802-6.228 5.833a.478.478 0 0 1-.299 0c-3.334-1.106-5.444-3.225-6.449-6.479-.895-2.897-.804-6.281-.723-9.266.003-.116.046-.228.122-.315s.179-.144.291-.161c2.336-.357 4.749-1.185 6.655-2.369a.479.479 0 0 1 .504 0 16.206 16.206 0 0 0 3.002 1.436L8.951 8.228c-.208-.573-.705-.927-1.302-.927l-.41.005.006.967c0 .819-.792 1.461-1.803 1.461H1.803C.792 9.734 0 9.092 0 8.273v-.502C0 6.952.792 6.31 1.803 6.31h4.133c.081 0 .162.007.242.019l1.44-.018.031-.001c.999 0 1.865.616 2.212 1.574l.79 2.181h2.603V6.654c0-.601.478-1.09 1.067-1.09h8.307V2.691c0-.601.478-1.09 1.067-1.09h4.008a1.08 1.08 0 0 1 1.067 1.09v7.373h1.785c1.056 0 1.755 1.117 1.31 2.096l-3.373 7.434c-.578 1.274-1.744 2.035-3.119 2.035z" style="fill:var(--color2, #8b5cf6)"/>
    </symbol>
    <symbol id="icon-Placeholder" viewBox="0 0 32 32">
      <path fill="#d9d9d9" d="M2.667 2.667h26.667v26.667H2.667V2.667z" style="fill:var(--color12, #d9d9d9)"/>
    </symbol>
    <symbol id="icon-Quotes" viewBox="0 0 32 32">
      <path d="M14.31 13.905c0 1.981-.301 3.683-.901 5.105-.601 1.473-1.377 2.667-2.329 3.581-.951.965-2.028 1.651-3.23 2.057-1.252.457-2.479.686-3.681.686v-2.667c1.302 0 2.529-.457 3.681-1.371 1.102-.863 1.753-2.057 1.953-3.581-.15.051-.325.102-.526.152-.15.051-.326.102-.526.152-.25.051-.526.076-.826.076-1.502 0-2.754-.584-3.756-1.752-1.002-1.117-1.502-2.438-1.502-3.962s.526-2.87 1.577-4.038C5.246 7.226 6.598 6.667 8.3 6.667c1.903 0 3.38.711 4.432 2.133 1.052 1.473 1.577 3.175 1.577 5.105zm15.023 0c0 1.981-.301 3.683-.901 5.105-.601 1.473-1.377 2.667-2.329 3.581-.952.965-2.028 1.651-3.23 2.057-1.252.457-2.479.686-3.681.686v-2.667c1.302 0 2.529-.457 3.681-1.371 1.102-.863 1.753-2.057 1.953-3.581-.15.051-.325.102-.526.152-.15.051-.326.102-.526.152-.25.051-.526.076-.826.076-1.502 0-2.754-.584-3.756-1.752-1.002-1.117-1.502-2.438-1.502-3.962s.526-2.87 1.577-4.038c1.002-1.117 2.354-1.676 4.056-1.676 1.903 0 3.38.711 4.432 2.133 1.052 1.473 1.577 3.175 1.577 5.105z"/>
    </symbol>
    <symbol id="icon-Quotes-1" viewBox="0 0 32 32">
      <path d="M19.147 18.973a5.012 5.012 0 0 1-6.294 0 1.338 1.338 0 0 0-1.88.173 1.338 1.338 0 0 0 .173 1.88 7.571 7.571 0 0 0 9.706 0 1.338 1.338 0 0 0 .173-1.88 1.34 1.34 0 0 0-.904-.476 1.33 1.33 0 0 0-.976.303zm-6.867-4.92a1.336 1.336 0 0 0 1.88 0 1.336 1.336 0 0 0 0-1.88 4.108 4.108 0 0 0-5.654 0 1.336 1.336 0 0 0-.374 1.499 1.337 1.337 0 0 0 1.822.715c.165-.08.313-.193.432-.333a1.334 1.334 0 0 1 1.894 0zm11.213-1.88a4.108 4.108 0 0 0-5.654 0 1.335 1.335 0 0 0 .069 1.81 1.33 1.33 0 0 0 1.81.069 1.334 1.334 0 0 1 1.894 0 1.336 1.336 0 0 0 1.88 0 1.336 1.336 0 0 0 0-1.88zM16 2.667A13.336 13.336 0 0 0 2.922 18.602a13.327 13.327 0 0 0 10.476 10.476 13.34 13.34 0 0 0 13.688-5.67 13.336 13.336 0 0 0-1.658-16.836A13.33 13.33 0 0 0 16 2.667zm0 24a10.666 10.666 0 1 1 0-21.332 10.666 10.666 0 0 1 0 21.332z"/>
    </symbol>
  </defs>
</svg>
